<svg width="16" height="16" viewBox="0 0 16 16" fill="none" xmlns="http://www.w3.org/2000/svg">
<g clip-path="url(#clip0_2581_178)">
<path fill-rule="evenodd" clip-rule="evenodd" d="M7.25065 2.16665C4.4432 2.16665 2.16732 4.44253 2.16732 7.24998C2.16732 10.0574 4.4432 12.3333 7.25065 12.3333C8.65324 12.3333 9.92209 11.7661 10.8425 10.847C11.7647 9.92619 12.334 8.6552 12.334 7.24998C12.334 4.44253 10.0581 2.16665 7.25065 2.16665ZM0.833984 7.24998C0.833984 3.70615 3.70682 0.833313 7.25065 0.833313C10.7945 0.833313 13.6673 3.70615 13.6673 7.24998C13.6673 8.78278 13.1292 10.1909 12.2326 11.2942L14.9716 14.0281C15.2322 14.2883 15.2326 14.7104 14.9725 14.9709C14.7124 15.2315 14.2903 15.2319 14.0297 14.9718L11.2893 12.2365C10.1868 13.1303 8.78088 13.6666 7.25065 13.6666C3.70682 13.6666 0.833984 10.7938 0.833984 7.24998Z" fill="#9A9CA5" style="fill:#9A9CA5;fill:color(display-p3 0.6028 0.6135 0.6458);fill-opacity:1;"/>
</g>
<defs>
<clipPath id="clip0_2581_178">
<rect width="16" height="16" fill="white" style="fill:white;fill-opacity:1;"/>
</clipPath>
</defs>
</svg>
